<svg width="64" height="64" xmlns="http://www.w3.org/2000/svg">
 <!-- Created with SVG Editor - http://github.com/mzalive/SVG Editor/ -->
 <g>
  <title>background</title>
  <rect fill="#fff" id="canvas_background" height="66" width="66" y="-1" x="-1"/>
  <g display="none" overflow="visible" y="0" x="0" height="100%" width="100%" id="canvasGrid">
   <rect fill="url(#gridpattern)" stroke-width="0" y="0" x="0" height="100%" width="100%"/>
  </g>
 </g>
 <g>
  <title>Layer 1</title>
  <path d="m6.846154,4.223557c0,0.153846 0,0.307693 0,0.615385c0,0.153846 0,0.615385 0,1.076923c0,0.461538 0,0.923077 0,1.384615c0,0.615385 0,1.230769 0,2c0,0.769231 0,1.538462 0,2.461538c0,0.923077 -0.094292,2.001648 -0.153846,3.076923c-0.077041,1.391006 -0.390983,2.443664 -0.615385,3.692307c-0.246421,1.371168 -0.460786,2.592552 -0.615385,4.153847c-0.121277,1.224779 -0.143057,2.462934 -0.307692,3.692307c-0.144395,1.078232 -0.153846,2.153847 -0.153846,3.076923c0,0.769232 -0.07666,1.682764 -0.153846,2.615383c-0.076137,0.919933 0,1.69231 -0.153846,2.615387c-0.153846,0.923077 -0.07771,1.695454 -0.153846,2.615383c-0.077186,0.932621 -0.153846,1.846153 -0.153846,2.76923c0,0.769234 0,1.538464 0,2.153847c0,0.46154 0.228655,0.895962 0.307692,1.23077c0.070693,0.299461 0.094972,0.627094 0.153846,0.76923c0.083261,0.201012 0.083152,0.469772 0.153846,0.769234c0.079038,0.334805 0.229763,0.596699 0.307693,1.07692c0.073931,0.455582 0.076342,1.062737 0.153846,1.69231c0.075189,0.610771 -0.07393,1.236729 0,1.692307c0.077929,0.480225 0.104559,0.773205 0.153846,1.076923c0.077929,0.480225 0.228655,0.742115 0.307693,1.076923c0.035347,0.149731 0,0.615383 0,0.76923c0,0.46154 -0.070693,0.931309 0,1.23077c0.079037,0.334808 0.153846,0.615383 0.153846,0.923077c0,0.307693 0,0.46154 -0.153846,0.76923c-0.153847,0.307693 -0.382501,0.742115 -0.461539,1.076923c-0.10604,0.449192 -0.229763,0.750546 -0.307692,1.23077c-0.049287,0.303719 -0.074809,0.588268 -0.153846,0.923077c-0.035347,0.149731 0,0.307693 0,0.46154c0,0.153843 0,0.30769 0,0.461536c0,0.153847 -0.153846,0.307693 0,0.307693c0.153846,0 0.461538,0 0.923077,0c0.461538,0 1.076923,0 1.846154,0c0.615385,0 1.538462,0 2.461538,0c1.076923,0 2,-0.153847 3.384616,-0.153847c1.230769,0 2.461538,0 3.846153,0c1.23077,0 2.615385,0 4,0c1.384615,0 2.924986,-0.077209 4.461538,-0.153847c1.544216,-0.077019 3.079277,-0.068768 4.615385,-0.153847c1.391005,-0.077042 2.769232,-0.153847 4.153845,-0.153847c1.23077,0 2.299496,-0.076729 3.384617,-0.153843c1.074215,-0.07634 1.836609,-0.07666 2.76923,-0.153847c0.91993,-0.076138 1.527046,-0.076546 2.307693,-0.153847c0.612389,-0.060638 1.23077,0 1.846153,0c0.46154,0 1.076923,0 1.53846,0c0.307693,0 0.769234,0 1.23077,0c0.46154,0 0.76923,0 1.23077,0c0.153847,0 0.46154,0 0.76923,0c0.153847,0 0.46154,0 0.615387,0c0.153843,0 0.465511,-0.049286 0.76923,0c0.480221,0.07793 0.775188,0.079914 1.23077,0.153847c0.480221,0.07793 0.76923,0.153847 1.230766,0.153847c0.307693,0 0.769234,0 1.23077,0c0.46154,0 0.76923,0 1.23077,0c0.307693,0 0.76923,0 1.076923,0c0.307693,0 0.76923,0.153843 0.923077,0.153843c0.153847,0 0.307693,0 0.307693,-0.153843c0,-0.153847 -0.07069,-0.315926 0,-0.615387c0.079037,-0.334808 0.229759,-0.750546 0.30769,-1.23077c0.098572,-0.607437 0.153847,-1.076923 0.153847,-1.692307c0,-0.461536 0.230392,-1.065506 0.307693,-1.846153c0.090958,-0.918583 0,-1.692307 0,-2.615383c0,-1.076923 0.076138,-2.156994 0,-3.076923c-0.077187,-0.932621 -0.13559,-1.69619 -0.307693,-2.46154c-0.139164,-0.61887 -0.078655,-1.389229 -0.153847,-2c-0.077503,-0.62957 -0.153847,-1.23077 -0.153847,-1.692307c0,-0.615387 0,-1.384617 0,-2c0,-0.615387 0,-1.23077 0,-1.846153c0,-0.769234 0,-1.384617 0,-2.153847c0,-0.76923 -0.090958,-1.696804 0,-2.615387c0.077301,-0.780647 0.077709,-1.695452 0.153847,-2.615383c0.077187,-0.932621 0.153847,-1.692308 0.153847,-2.615385c0,-0.76923 0.153847,-1.538462 0.153847,-2.307692c0,-0.769232 0.153847,-1.538462 0.153847,-2.307693c0,-0.76923 0,-1.384615 0,-2.153845c0,-0.769232 0,-1.384615 0,-2c0,-0.615385 -0.075916,-1.212086 -0.153847,-1.692308c-0.073929,-0.455578 0,-1.076923 0,-1.538462c0,-0.461538 0,-0.923077 0,-1.384615c0,-0.461538 0,-0.923077 0,-1.384615c0,-0.461539 -0.075916,-1.058239 -0.153847,-1.538462c-0.098576,-0.607439 0.098576,-1.084869 0,-1.692308c-0.07793,-0.480223 -0.153847,-1.076922 -0.153847,-1.538461c0,-0.461539 -0.153847,-0.769231 -0.153847,-1.23077c0,-0.153846 0,-0.615385 0,-0.769231c0,-0.307692 -0.153843,-0.461538 -0.153843,-0.615385c0,-0.153846 0.058876,-0.319403 0,-0.461538c-0.08326,-0.20101 -0.153847,-0.307693 -0.153847,-0.461538c0,-0.153846 0,-0.307693 0,-0.461539c0,-0.153846 0,-0.307692 0,-0.461538c0,-0.153846 -0.153847,-0.153846 -0.307693,-0.153846c-0.153847,0 -0.465511,-0.104559 -0.76923,-0.153846c-0.480225,-0.077929 -0.76923,-0.153846 -1.384617,-0.153846c-0.615383,0 -1.23077,0 -1.846153,0c-0.615383,0 -1.23077,0 -2.153847,0c-0.615383,0 -1.692307,0 -2.76923,0c-1.23077,0 -2.30051,0.076774 -3.53846,0.153846c-1.074841,0.066917 -2,0 -3.076923,0c-0.769234,0 -1.680893,0.076547 -2.46154,0.153846c-0.918583,0.090958 -1.846153,0 -2.76923,0c-1.076923,0 -2.153847,0 -3.076923,0c-0.923077,0 -1.692307,0 -2.461538,0c-0.769232,0 -1.384615,0 -2,0c-0.615385,0 -1.23077,0 -1.846155,-0.153846c-0.615383,-0.153846 -1.219353,-0.230393 -2,-0.307692c-0.765486,-0.075798 -1.692307,-0.153846 -2.76923,-0.153846c-0.923077,0 -1.692308,0 -2.461538,0c-0.461538,0 -1.076923,0 -1.692308,0c-0.615383,0 -1.076923,0 -1.692307,0c-0.461538,0 -1.076923,0 -1.538462,0c-0.461539,0 -1.076923,0 -1.538462,0c-0.461538,0 -0.923078,0 -1.384616,0c-0.307692,0 -0.615384,0 -1.076922,0c-0.307693,0 -0.769231,0 -1.230769,0c-0.461539,0 -0.923078,0.153846 -1.384616,0.153846c-0.461538,0 -0.742115,0.074809 -1.076923,0.153846c-0.149731,0.035347 -0.307693,0.153846 -0.461539,0.153846c-0.153846,0 -0.307692,0 -0.461538,0l0,0.153846l-0.153846,0" id="svg_2" stroke-width="1.5" stroke="#000" fill="none"/>
  <path d="m11.307693,12.223557c0,0.153847 0,0.307693 0,0.461538c0,0.153847 0.070693,0.315924 0,0.615385c-0.079038,0.334808 -0.153847,0.615384 -0.153847,1.076923c0,0.307692 0.07393,0.77519 0,1.230769c-0.077929,0.480223 -0.153846,0.923077 -0.153846,1.384615c0,0.307692 0,0.769232 0,1.23077c0,0.461538 0,0.923077 0,1.384615c0,0.461538 0,0.923077 0,1.538462c0,0.461538 0,0.923077 0,1.230768c0,0.461538 0.153846,0.923077 0.153846,1.384617c0,0.307692 0,0.76923 0,1.230768c0,0.461538 0,0.923077 -0.153846,1.538462c-0.153846,0.615385 -0.307693,1.384615 -0.461538,2.153847c-0.153846,0.76923 -0.230393,1.373199 -0.307693,2.153845c-0.075799,0.765488 0,1.384615 0,2.000002c0,0.615383 0,1.076923 0,1.384613c0,0.615387 0,1.076923 0,1.538464c0,0.461536 0,1.076923 0,1.53846c0,0.76923 0,1.384617 0,2.153847c0,0.615383 0,1.384617 0,2.153847c0,0.615383 0,1.23077 0,1.846153c0,0.46154 0.229763,0.904392 0.307693,1.384617c0.049286,0.303715 0.036097,0.638805 0.153846,0.923077c0.083261,0.201012 0.153847,0.461536 0.153847,0.76923c0,0.46154 -0.000001,0.76923 0.153846,1.23077c0.153845,0.461536 0.087617,0.943539 0.307693,1.53846c0.119353,0.322643 0.275362,0.781296 0.461538,1.23077c0.131647,0.317825 0.224431,0.568218 0.307693,0.76923c0.058874,0.142136 0,0.307693 0,0.615387c0,0.153843 0,0.30769 0,0.615383c0,0.307693 0,0.615383 0,0.923077c0,0.307693 0,0.46154 0,0.615383c0,0.153847 0,0.307693 0,0.46154c0,0.153847 0,0.307693 0,0.46154c0,0.153843 0,0.30769 0.153846,0.30769c0.153847,0 0.319404,0.094971 0.461538,0.153847c0.201011,0.08326 0.461538,0.153847 0.615385,0.153847c0.461538,0 0.769231,0 1.230769,0c0.615384,0 1.058239,0.075916 1.538462,0.153847c0.455578,0.073929 1.076923,0 1.692307,0c0.615385,0 1.23077,0 1.846155,0c0.615385,0 1.238714,0.098576 1.846153,0c0.480223,-0.07793 0.929037,-0.079918 1.384615,-0.153847c0.480223,-0.07793 0.769232,-0.153847 1.23077,-0.153847c0.615385,0 0.926535,-0.056393 1.384615,0c0.629572,0.077503 1.076923,0.153847 1.692308,0.153847c0.615383,0 1.076923,0 1.692307,0c0.461538,0 1.062737,-0.23019 1.692308,-0.307693c0.610775,-0.075191 1.230768,-0.153847 1.846155,-0.153847c0.615383,0 1.076923,-0.153843 1.692307,-0.153843c0.615383,0 1.076923,0 1.53846,0c0.46154,0 0.923077,0 1.384617,0c0.307693,0 0.76923,0 1.076923,0c0.461536,0 0.923077,0 1.23077,0c0.461536,0 0.76923,0 1.076923,0c0.461536,0 0.76923,0 1.076923,0c0.30769,0 0.615383,0 0.923077,0c0.30769,0 0.615383,0 0.923077,0c0.461536,0 0.923077,0 1.230766,0c0.46154,0 0.904396,-0.075916 1.384617,-0.153847c0.303719,-0.049286 0.615383,0 0.923077,0c0.153847,0 0.46154,-0.153847 0.615387,-0.153847c0.30769,0 0.469769,0.070694 0.76923,0c0.334805,-0.079037 0.615383,-0.153847 0.923077,-0.153847c0.307693,0 0.615383,0 0.923077,0c0.307693,0 0.588268,-0.07481 0.923077,-0.153847c0.299461,-0.070694 0.615383,-0.153847 0.76923,-0.153847c0.153847,0 0.307693,0 0.46154,0c0.153847,0 0.30769,0 0.461536,0c0.153847,0 0.307693,0 0.46154,0c0.153847,0 0.157963,-0.1185 0.307693,-0.153847c0.334805,-0.079037 0.461536,-0.153843 0.461536,-0.30769c0,-0.153847 0,-0.307693 0,-0.46154c0,-0.30769 -0.073933,-0.467495 0,-0.923077c0.07793,-0.480221 0.233765,-0.929035 0.307693,-1.384613c0.07793,-0.480225 0.079918,-0.929039 0.153847,-1.384617c0.077927,-0.480225 0.153843,-1.076923 0.153843,-1.538464c0,-0.615383 0.153847,-1.07692 0.153847,-1.846153c0,-0.615383 0.153847,-1.230766 0.153847,-2c0,-0.615383 0,-1.230766 0,-1.846153c0,-0.461536 -0.141388,-1.093384 0,-1.692307c0.079037,-0.334808 0.153847,-0.923077 0.153847,-1.384617c0,-0.615383 0,-1.23077 0,-1.846153c0,-0.461536 0,-1.076923 0,-1.692307c0,-0.46154 -0.097454,-0.926537 -0.153847,-1.384617c-0.077503,-0.62957 -0.307693,-1.076923 -0.307693,-1.53846c0,-0.615387 -0.075916,-1.212088 -0.153843,-1.692308c-0.098572,-0.607439 0,-1.23077 -0.153847,-1.846155c-0.153847,-0.615383 -0.307693,-1.230768 -0.307693,-1.846153c0,-0.307692 -0.075916,-0.750546 -0.153847,-1.230768c-0.049286,-0.30372 0,-0.615385 0,-0.923079c0,-0.461538 0,-0.76923 0,-1.076921c0,-0.461538 0,-0.769232 0,-1.23077c0,-0.153847 0,-0.615385 0,-0.923077c0,-0.461538 0,-1.076923 0,-1.692308c0,-0.615383 0.055271,-1.238714 0.153847,-1.846153c0.07793,-0.480223 0.153847,-0.923077 0.153847,-1.384615c0,-0.615385 0,-1.076923 0,-1.384616c0,-0.461538 0,-0.923077 0,-1.230769c0,-0.461538 0,-0.923077 0,-1.230769c0,-0.461538 0,-0.769231 0,-1.230769c0,-0.461538 -0.075916,-0.750546 -0.153847,-1.230769c-0.024643,-0.15186 0,-0.461538 0,-0.615385c0,-0.153846 0.108784,-0.506598 0,-0.615384c-0.108788,-0.108786 -0.153847,-0.153847 -0.153847,-0.307693l0,-0.153846l0,-0.153847" id="svg_3" stroke-width="1.5" stroke="#000" fill="none"/>
  <path d="m33.46154,48.223557c0,-0.153847 0,-0.30769 0,-0.461536c0,-0.307693 0,-0.615387 0,-0.923077c0,-0.46154 -0.153847,-0.923077 -0.153847,-1.384617c0,-0.461536 -0.076344,-0.90889 -0.153847,-1.53846c-0.075191,-0.610775 0.075798,-1.234512 0,-2c-0.077301,-0.780651 -0.078659,-1.389229 -0.153847,-2c-0.077503,-0.629574 -0.16853,-1.227283 -0.307693,-1.846157c-0.172104,-0.765354 -0.05986,-1.544224 -0.153847,-2.30769c-0.077503,-0.629574 -0.153843,-1.538464 -0.153843,-2.307693c0,-0.76923 0,-1.538462 0,-2.307692c0,-0.769232 0,-1.384615 0,-2.153847c0,-0.76923 0,-1.384615 0,-2c0,-0.615385 0,-1.230768 0,-1.846153c0,-0.769232 0,-1.384615 0,-2c0,-0.461538 0,-1.076923 0,-1.692308c0,-0.461538 0,-0.76923 0,-1.230768c0,-0.153847 0,-0.461538 0,-0.615385c0,-0.153847 0,-0.307693 0,-0.461538c0,-0.153847 0,-0.307693 0,-0.461538c0,-0.153847 0,-0.307693 0,-0.615385c0,-0.307692 0,-0.615385 0,-0.923077c0,-0.307693 0,-0.615385 0,-0.769232c0,-0.153845 0,-0.461538 0,-0.615384c0,-0.153846 0,-0.307693 0,-0.461538c0,-0.153846 0,-0.307693 0,-0.615385c0,-0.153846 0,-0.307692 0,-0.461538c0,-0.153846 0,-0.307693 0,-0.461538c0,-0.153846 0,-0.307693 0,-0.461538c0,-0.307693 0,-0.615385 0,-0.923077l0,-0.307693l0,-0.153847" id="svg_4" stroke-width="1.5" stroke="#000" fill="none"/>
  <path d="m21,30.53125c0,-0.153847 0,-0.307692 0,-0.461538c0,-0.307692 0,-0.461538 0,-0.923077c0,-0.307693 0.153847,-0.615385 0.307692,-1.076923c0.153847,-0.461538 0.352091,-0.902813 0.615385,-1.538462c0.186176,-0.449471 0.247793,-0.94758 0.461538,-1.384615c0.243708,-0.498297 0.668644,-1.03161 0.923077,-1.384615c0.402294,-0.558151 0.615385,-1.076923 0.923079,-1.692308c0.307692,-0.615385 0.679369,-1.040165 0.923077,-1.538462c0.213745,-0.437035 0.490812,-0.90485 0.76923,-1.384615c0.172668,-0.297539 0.514799,-0.57007 0.769232,-0.923077c0.201147,-0.279076 0.461538,-0.615385 0.76923,-0.923079c0.307692,-0.307692 0.461538,-0.76923 0.615385,-0.923077c0.307692,-0.307692 0.414238,-0.490154 0.615385,-0.76923c0.254433,-0.353005 0.461538,-0.461539 0.615383,-0.615385c0.307692,-0.307693 0.509233,-0.359612 0.923079,-0.615384c0.185076,-0.114384 0.615383,-0.307693 0.76923,-0.461539c0.307692,-0.307692 0.490154,-0.414239 0.76923,-0.615384c0.176504,-0.127216 0.46154,-0.461537 0.615387,-0.615385c0.153843,-0.153845 0.414238,-0.336308 0.615383,-0.615384c0.127216,-0.176503 0.280682,-0.168905 0.46154,-0.461538c0.080883,-0.13087 0.153843,-0.153847 0.153843,-0.307693l0,-0.153846l0.153847,0" id="svg_5" stroke-width="1.5" stroke="#000" fill="none"/>
  <path d="m48.076923,31.30048c0,-0.153845 0.070694,-0.315922 0,-0.615383c-0.079037,-0.334808 -0.40099,-0.698263 -0.615383,-1.076923c-0.312531,-0.551989 -0.307693,-1.076923 -0.615387,-1.692308c-0.307693,-0.615385 -0.52552,-1.194012 -0.76923,-1.692307c-0.213749,-0.437035 -0.544827,-1.031181 -0.76923,-1.538462c-0.256618,-0.580099 -0.49662,-1.273399 -0.769234,-1.846155c-0.330593,-0.694565 -0.879093,-1.263334 -1.230766,-1.692307c-0.55175,-0.673031 -1.076923,-1.23077 -1.384617,-1.538462c-0.307693,-0.307693 -0.615383,-0.769232 -0.923077,-1.076923c-0.153847,-0.153847 -0.46154,-0.461538 -0.76923,-0.76923c-0.307693,-0.307693 -0.586563,-0.647203 -0.923077,-0.923079c-0.428974,-0.351675 -0.884113,-0.826359 -1.538464,-1.230768c-0.585266,-0.361713 -1.278461,-0.667308 -1.692307,-0.923078c-0.370155,-0.228768 -0.722065,-0.532124 -0.923077,-0.615384c-0.426407,-0.176623 -0.644001,-0.106547 -0.923077,-0.307693c-0.176502,-0.127216 -0.319405,-0.094972 -0.46154,-0.153846c-0.201012,-0.083261 -0.248814,-0.319404 -0.30769,-0.461538c-0.08326,-0.201011 -0.352753,-0.198907 -0.46154,-0.307693c-0.108788,-0.108786 -0.153847,-0.307693 -0.307693,-0.461538c-0.153847,-0.153847 -0.461536,-0.307693 -0.615383,-0.307693l0,-0.153847l-0.153847,-0.153846l-0.153847,0" id="svg_6" stroke-width="1.5" stroke="#000" fill="none"/>
  <path d="m41.615383,44.377403c0.153847,0 0.153847,0.153847 0.307693,0.307693c0.153847,0.153847 0.1185,0.465652 0.153847,0.615383c0.079037,0.334808 0.228657,0.588272 0.307693,0.923077c0.070694,0.299461 0.153843,0.46154 0.30769,0.769234l0,0.153843l0,0.153847l0.153847,0" id="svg_7" stroke-width="1.5" stroke="#000" fill="none"/>
  <path d="m43.153847,42.53125c0.307693,0.153847 0.668644,0.262379 0.923077,0.615383c0.201149,0.279076 0.307693,0.46154 0.461536,0.615387c0.153847,0.153847 0.378281,0.260525 0.46154,0.461536c0.058876,0.142136 0.083153,0.315926 0.153847,0.615387c0.079037,0.334805 0.153847,0.615383 0.307693,0.76923l0,0.307693l0.153843,0.153843l0,0.153847" id="svg_8" stroke-width="1.5" stroke="#000" fill="none"/>
  <path d="m40.23077,48.53125c0.153847,0 0.198902,0.045059 0.30769,0.153847c0.108788,0.108788 0.307693,0.153847 0.46154,0.307693c0.153847,0.153843 0.153851,0.307686 0.46154,0.615383c0.153843,0.153847 0.434422,0.536346 0.76923,0.615383c0.149731,0.035347 0.414371,0.224434 0.615383,0.307693c0.142136,0.058876 0.307693,0 0.46154,0c0.153847,0 0.30769,0 0.461536,0c0.307693,0 0.46154,0 0.76923,0c0.307693,0 0.46154,0 0.769234,0c0.153847,0 0.319401,0.058876 0.461536,0c0.201012,-0.08326 0.224434,-0.260529 0.307693,-0.46154c0.117748,-0.284267 0.153847,-0.615383 0.153847,-0.923077c0,-0.30769 0.153843,-0.615383 0.30769,-0.923077c0.153843,-0.30769 0.307693,-0.615383 0.46154,-0.76923c0.153847,-0.153847 0.378281,-0.260529 0.46154,-0.461536c0.058876,-0.142136 0.045055,-0.352753 0.153843,-0.46154c0.108788,-0.108788 0.153847,-0.153847 0.153847,-0.307693l0,-0.153847" id="svg_9" stroke-width="1.5" stroke="#000" fill="none"/>
 </g>
</svg>